<svg width="40" height="40" viewBox="0 0 40 40" fill="none" xmlns="http://www.w3.org/2000/svg">
<path d="M0 8C0 3.58172 3.58172 0 8 0H32C36.4183 0 40 3.58172 40 8V32C40 36.4183 36.4183 40 32 40H8C3.58172 40 0 36.4183 0 32V8Z" fill="#171717"/>
<path d="M22.5 28.3333V25C22.6159 23.9561 22.3166 22.9084 21.6667 22.0833C24.1667 22.0833 26.6667 20.4167 26.6667 17.5C26.7333 16.4583 26.4417 15.4333 25.8333 14.5833C26.0667 13.625 26.0667 12.625 25.8333 11.6667C25.8333 11.6667 25 11.6667 23.3333 12.9167C21.1333 12.5 18.8667 12.5 16.6667 12.9167C15 11.6667 14.1667 11.6667 14.1667 11.6667C13.9167 12.625 13.9167 13.625 14.1667 14.5833C13.5599 15.4299 13.2654 16.4607 13.3333 17.5C13.3333 20.4167 15.8333 22.0833 18.3333 22.0833C18.0083 22.4917 17.7667 22.9583 17.625 23.4583C17.4833 23.9583 17.4417 24.4833 17.5 25V28.3333" stroke="#FAFAFA" stroke-width="2" stroke-linecap="round" stroke-linejoin="round"/>
<path d="M17.5 25C13.7416 26.6667 13.3333 23.3333 11.6666 23.3333" stroke="#FAFAFA" stroke-width="2" stroke-linecap="round" stroke-linejoin="round"/>
</svg>
