<svg width="16" height="19" viewBox="0 0 16 19" fill="none" xmlns="http://www.w3.org/2000/svg">
<path d="M14.5871 10.3471C14.5871 14.5875 11.6188 16.7077 8.09076 17.9375C7.90602 18.0001 7.70534 17.9971 7.52255 17.929C3.98602 16.7077 1.01771 14.5875 1.01771 10.3471V4.41044C1.01771 4.18552 1.10706 3.9698 1.26611 3.81075C1.42515 3.65171 1.64087 3.56235 1.86579 3.56235C3.56197 3.56235 5.68219 2.54465 7.15787 1.25555C7.33754 1.10205 7.5661 1.01771 7.80241 1.01771C8.03873 1.01771 8.26729 1.10205 8.44696 1.25555C9.93112 2.55313 12.0429 3.56235 13.739 3.56235C13.964 3.56235 14.1797 3.65171 14.3387 3.81075C14.4978 3.9698 14.5871 4.18552 14.5871 4.41044V10.3471Z" stroke="#FAFAFA" stroke-width="2" stroke-linecap="round" stroke-linejoin="round"/>
</svg>
