<svg width="19" height="14" viewBox="0 0 19 14" fill="none" xmlns="http://www.w3.org/2000/svg">
<path d="M14.1648 12.8939H6.95439C5.85321 12.8936 4.77379 12.5871 3.83677 12.0087C2.89974 11.4302 2.14202 10.6026 1.64828 9.61834C1.15454 8.63405 0.944223 7.53186 1.04084 6.43492C1.13746 5.33798 1.5372 4.28951 2.1954 3.40669C2.8536 2.52386 3.74432 1.84145 4.76803 1.43571C5.79174 1.02997 6.90811 0.916887 7.99239 1.1091C9.07667 1.30131 10.0861 1.79125 10.908 2.52415C11.7299 3.25706 12.3317 4.20407 12.6464 5.25935H14.1648C15.1772 5.25935 16.1481 5.66153 16.864 6.3774C17.5799 7.09328 17.9821 8.06422 17.9821 9.07662C17.9821 10.089 17.5799 11.06 16.864 11.7758C16.1481 12.4917 15.1772 12.8939 14.1648 12.8939Z" stroke="#FAFAFA" stroke-width="2" stroke-linecap="round" stroke-linejoin="round"/>
</svg>
