<svg width="18" height="18" viewBox="0 0 18 18" fill="none" xmlns="http://www.w3.org/2000/svg">
<path d="M13.9891 15.377L12.4153 8.20765L15.4754 5.14754C16.7869 3.83607 17.224 2.08743 16.7869 1.21311C15.9126 0.775956 14.1639 1.21311 12.8525 2.52459L9.79235 5.5847L2.62295 4.01093C2.18579 3.9235 1.83607 4.09836 1.6612 4.44809L1.39891 4.88525C1.22404 5.3224 1.31148 5.75956 1.6612 6.02186L6.29508 9.08197L4.54645 11.7049H1.9235L1.04918 12.5792L3.67213 14.3279L5.42076 16.9508L6.29508 16.0765V13.4536L8.91803 11.7049L11.9781 16.3388C12.2404 16.6885 12.6776 16.776 13.1148 16.6011L13.5519 16.4262C13.9016 16.1639 14.0765 15.8142 13.9891 15.377Z" stroke="#FAFAFA" stroke-width="2" stroke-linecap="round" stroke-linejoin="round"/>
</svg>
