<svg width="40" height="40" viewBox="0 0 40 40" fill="none" xmlns="http://www.w3.org/2000/svg">
<path d="M0 8C0 3.58172 3.58172 0 8 0H32C36.4183 0 40 3.58172 40 8V32C40 36.4183 36.4183 40 32 40H8C3.58172 40 0 36.4183 0 32V8Z" fill="#171717"/>
<path d="M28.1675 18.3333C28.548 20.2011 28.2768 22.1428 27.399 23.8348C26.5212 25.5268 25.0899 26.8667 23.3437 27.6311C21.5976 28.3955 19.6421 28.5381 17.8035 28.0353C15.9649 27.5325 14.3543 26.4145 13.2402 24.8678C12.1261 23.3212 11.5759 21.4394 11.6813 19.5361C11.7868 17.6329 12.5415 15.8234 13.8197 14.4093C15.0978 12.9952 16.8221 12.062 18.705 11.7654C20.5879 11.4687 22.5156 11.8265 24.1666 12.7792" stroke="#FAFAFA" stroke-width="2" stroke-linecap="round" stroke-linejoin="round"/>
<path d="M17.5 19.1667L20 21.6667L28.3333 13.3334" stroke="#FAFAFA" stroke-width="2" stroke-linecap="round" stroke-linejoin="round"/>
</svg>
