<svg width="163" height="48" viewBox="0 0 163 48" fill="none" xmlns="http://www.w3.org/2000/svg">
<path d="M156.012 48H6.0036C2.70334 48 0.00317383 45.3001 0.00317383 42.0001V6.0008C0.00317383 2.70084 2.70334 0.000915527 6.0036 0.000915527H156.012C159.312 0.000915527 162.013 2.70084 162.013 6.0008V42.0001C162.013 45.3001 159.312 48 156.012 48Z" fill="#100F0D"/>
<path d="M156.012 0.000915527H6.0036C2.70334 0.000915527 0.00317383 2.70084 0.00317383 6.0008V42.0001C0.00317383 45.3001 2.70334 48 6.0036 48H156.012C159.312 48 162.013 45.3001 162.013 42.0001V6.0008C162.013 2.70084 159.312 0.000915527 156.012 0.000915527ZM156.012 0.960411C158.791 0.960411 161.052 3.22168 161.052 6.0008V42.0001C161.052 44.7793 158.792 47.0405 156.012 47.0405H6.0036C3.22422 47.0405 0.963747 44.7793 0.963747 42.0001V6.0008C0.963747 3.22168 3.22422 0.960411 6.0036 0.960411H156.012Z" fill="#A2A2A1"/>
<path d="M128.334 36.0002H130.574V20.998H128.334V36.0002ZM148.504 26.4026L145.937 32.9064H145.861L143.197 26.4026H140.784L144.781 35.4926L142.502 40.5493H144.837L150.995 26.403L148.504 26.4026ZM135.804 34.2961C135.072 34.2961 134.049 33.9291 134.049 33.0221C134.049 31.8642 135.323 31.4204 136.422 31.4204C137.406 31.4204 137.871 31.6323 138.468 31.9219C138.294 33.3117 137.098 34.2961 135.804 34.2961ZM136.075 26.0744C134.454 26.0744 132.775 26.7888 132.08 28.3713L134.068 29.201C134.493 28.3713 135.283 28.1014 136.114 28.1014C137.272 28.1014 138.449 28.7955 138.468 30.0311V30.1853C138.063 29.9537 137.194 29.6065 136.133 29.6065C133.99 29.6065 131.809 30.7834 131.809 32.9837C131.809 34.9908 133.566 36.2841 135.534 36.2841C137.039 36.2841 137.871 35.6086 138.39 34.817H138.468V35.9756H140.631V30.2237C140.631 27.5603 138.641 26.0744 136.075 26.0744ZM122.236 28.2288H119.051V23.0868H122.236C123.91 23.0868 124.86 24.4724 124.86 25.6577C124.86 26.8202 123.91 28.2288 122.236 28.2288ZM122.178 20.9984H116.812V36.0006H119.051V30.3171H122.178C124.66 30.3171 127.1 28.5209 127.1 25.6583C127.1 22.7961 124.66 20.9984 122.178 20.9984ZM92.919 34.2987C91.3719 34.2987 90.0771 33.003 90.0771 31.2251C90.0771 29.4266 91.3719 28.1127 92.919 28.1127C94.4463 28.1127 95.645 29.4267 95.645 31.2251C95.645 33.003 94.4463 34.2987 92.919 34.2987ZM95.4903 27.2424H95.4128C94.9104 26.6432 93.9432 26.1019 92.7258 26.1019C90.1733 26.1019 87.834 28.3448 87.834 31.2251C87.834 34.0859 90.1733 36.3091 92.7258 36.3091C93.9432 36.3091 94.9103 35.7677 95.4128 35.1494H95.4903V35.8835C95.4903 37.8367 94.4463 38.8801 92.7643 38.8801C91.3921 38.8801 90.5413 37.8943 90.193 37.0632L88.2406 37.8751C88.8008 39.2278 90.2891 40.891 92.7643 40.891C95.3942 40.891 97.6176 39.344 97.6176 35.574V26.4111H95.4903L95.4903 27.2424ZM99.1646 35.9998H101.406V20.9976H99.1646V35.9998ZM104.713 31.0508C104.655 29.0788 106.241 28.0738 107.381 28.0738C108.271 28.0738 109.024 28.5186 109.276 29.1561L104.713 31.0508ZM111.673 29.3493C111.248 28.2093 109.952 26.1019 107.304 26.1019C104.674 26.1019 102.489 28.1703 102.489 31.2055C102.489 34.0667 104.655 36.3092 107.554 36.3092C109.894 36.3092 111.248 34.8791 111.809 34.0475L110.069 32.8874C109.488 33.7382 108.696 34.2988 107.554 34.2988C106.414 34.2988 105.602 33.7766 105.081 32.752L111.905 29.9297L111.673 29.3493ZM57.2994 27.6679V29.833H62.4807C62.3261 31.0509 61.9201 31.94 61.3013 32.5588C60.547 33.3125 59.3676 34.144 57.2993 34.144C54.1091 34.144 51.6153 31.573 51.6153 28.3832C51.6153 25.1934 54.1091 22.622 57.2993 22.622C59.0201 22.622 60.2765 23.2988 61.2046 24.1687L62.7324 22.6412C61.4366 21.4041 59.7162 20.4568 57.2993 20.4568C52.9292 20.4568 49.2559 24.014 49.2559 28.3832C49.2559 32.7519 52.9292 36.3092 57.2993 36.3092C59.6577 36.3092 61.4367 35.5358 62.8285 34.086C64.2593 32.6553 64.7041 30.6449 64.7041 29.0208C64.7041 28.5187 64.6651 28.0547 64.5878 27.6679H57.2994ZM70.5955 34.2987C69.0484 34.2987 67.7143 33.0227 67.7143 31.2055C67.7143 29.369 69.0484 28.1127 70.5955 28.1127C72.1419 28.1127 73.476 29.369 73.476 31.2055C73.476 33.0227 72.1419 34.2987 70.5955 34.2987ZM70.5955 26.1019C67.7719 26.1019 65.4715 28.2477 65.4715 31.2055C65.4715 34.144 67.7719 36.3092 70.5955 36.3092C73.418 36.3092 75.7188 34.144 75.7188 31.2055C75.7188 28.2477 73.418 26.1019 70.5955 26.1019ZM81.7719 34.2987C80.2259 34.2987 78.8913 33.0227 78.8913 31.2055C78.8913 29.369 80.226 28.1127 81.7719 28.1127C83.3189 28.1127 84.6526 29.369 84.6526 31.2055C84.6526 33.0227 83.3189 34.2987 81.7719 34.2987ZM81.7719 26.1019C78.9494 26.1019 76.649 28.2477 76.649 31.2055C76.649 34.144 78.9494 36.3092 81.7719 36.3092C84.5954 36.3092 86.8958 34.144 86.8958 31.2055C86.8958 28.2477 84.5954 26.1019 81.7719 26.1019Z" fill="white"/>
<path d="M24.8623 23.3092L12.0864 36.8687C12.0869 36.8715 12.0879 36.8739 12.0883 36.8767C12.4801 38.3491 13.8251 39.4333 15.4213 39.4333C16.0594 39.4333 16.6585 39.2608 17.1723 38.958L17.2131 38.9341L31.5947 30.636L24.8623 23.3092Z" fill="#EB3131"/>
<path d="M37.7883 21.0007L37.7761 20.9924L31.5671 17.3932L24.5719 23.6173L31.5914 30.6353L37.7676 27.072C38.8504 26.4875 39.5855 25.3461 39.5855 24.0298C39.5855 22.723 38.8604 21.5872 37.7883 21.0007Z" fill="#F6B60B"/>
<path d="M12.0846 11.1331C12.0078 11.4163 11.9674 11.7129 11.9674 12.0209V35.9818C11.9674 36.2892 12.0073 36.5869 12.0851 36.8691L25.3019 23.6561L12.0846 11.1331Z" fill="#5778C5"/>
<path d="M24.9567 24.0013L31.5699 17.3907L17.2045 9.06259C16.6824 8.74987 16.073 8.5694 15.4208 8.5694C13.8246 8.5694 12.4778 9.65552 12.0859 11.1296C12.0854 11.1311 12.0854 11.1321 12.0854 11.1333L24.9567 24.0013Z" fill="#3BAD49"/>
<path d="M56.8792 11.7379H53.3783V12.6041H56.0017C55.9304 13.311 55.6491 13.866 55.1747 14.2691C54.7003 14.6723 54.0946 14.8748 53.3783 14.8748C52.5926 14.8748 51.9269 14.601 51.3814 14.0573C50.8468 13.5024 50.575 12.8161 50.575 11.9892C50.575 11.1624 50.8468 10.4761 51.3814 9.92118C51.9269 9.37747 52.5926 9.10556 53.3783 9.10556C53.7815 9.10556 54.1659 9.17492 54.5183 9.32684C54.8709 9.47863 55.154 9.69055 55.3753 9.96247L56.041 9.29684C55.7391 8.95365 55.3566 8.69121 54.8821 8.49994C54.4077 8.30866 53.9127 8.21686 53.3782 8.21686C52.33 8.21686 51.4413 8.58057 50.7156 9.30623C49.9899 10.0337 49.6261 10.9299 49.6261 11.9892C49.6261 13.0485 49.9898 13.9467 50.7156 14.6724C51.4413 15.3979 52.33 15.7618 53.3782 15.7618C54.4789 15.7618 55.3565 15.4092 56.0316 14.6929C56.626 14.0968 56.9297 13.2906 56.9297 12.2818C56.9297 12.1112 56.9092 11.9291 56.8792 11.7379ZM58.2354 8.37795V15.6004H62.4525V14.7135H59.1636V12.4224H62.1301V11.5561H59.1636V9.26675H62.4525V8.37793L58.2354 8.37795ZM68.3659 9.26678V8.37795H63.4024V9.26678H65.4201V15.6004H66.3483V9.26678H68.3659ZM72.8596 8.37795H71.9314V15.6004H72.8596V8.37795ZM78.9861 9.26678V8.37795H74.0227V9.26678H76.0402V15.6004H76.9684V9.26678H78.9861ZM88.3524 9.31741C87.6361 8.58052 86.7585 8.2168 85.7103 8.2168C84.6603 8.2168 83.7828 8.58051 83.0664 9.30616C82.3501 10.0224 81.9976 10.9205 81.9976 11.9892C81.9976 13.0578 82.3501 13.956 83.0664 14.6724C83.7827 15.3979 84.6603 15.7617 85.7103 15.7617C86.7491 15.7617 87.636 15.3979 88.3524 14.6724C89.0687 13.9561 89.4212 13.0579 89.4212 11.9892C89.4212 10.9299 89.0687 10.0335 88.3524 9.31741ZM83.7321 9.92112C84.2665 9.37741 84.9228 9.1055 85.7103 9.1055C86.496 9.1055 87.1523 9.37742 87.6773 9.92112C88.2117 10.4555 88.4742 11.1529 88.4742 11.9892C88.4742 12.8273 88.2117 13.5229 87.6773 14.0573C87.1523 14.601 86.496 14.8747 85.7103 14.8747C84.9228 14.8747 84.2665 14.601 83.7321 14.0573C83.2089 13.5116 82.9464 12.8273 82.9464 11.9892C82.9464 11.1529 83.2089 10.4667 83.7321 9.92112ZM91.6264 11.1024L91.5871 9.70917H91.6264L95.2979 15.6003H96.2673V8.37788H95.3392V12.604L95.3785 13.9972H95.3392L91.8289 8.37788H90.6982V15.6003H91.6264V11.1024Z" fill="white" stroke="white" stroke-width="0.26666" stroke-miterlimit="10"/>
</svg>
