<svg width="40" height="40" viewBox="0 0 40 40" fill="none" xmlns="http://www.w3.org/2000/svg">
<path d="M0 8C0 3.58172 3.58172 0 8 0H32C36.4183 0 40 3.58172 40 8V32C40 36.4183 36.4183 40 32 40H8C3.58172 40 0 36.4183 0 32V8Z" fill="#171717"/>
<path d="M20.6917 11.8167C20.4745 11.7176 20.2387 11.6664 20 11.6664C19.7614 11.6664 19.5255 11.7176 19.3083 11.8167L12.1667 15.0667C12.0188 15.1319 11.8931 15.2387 11.8048 15.3741C11.7165 15.5094 11.6696 15.6676 11.6696 15.8292C11.6696 15.9908 11.7165 16.1489 11.8048 16.2843C11.8931 16.4197 12.0188 16.5265 12.1667 16.5917L19.3167 19.85C19.5338 19.9491 19.7697 20.0003 20.0083 20.0003C20.247 20.0003 20.4829 19.9491 20.7 19.85L27.85 16.6C27.9979 16.5348 28.1236 16.428 28.2119 16.2926C28.3001 16.1573 28.3471 15.9991 28.3471 15.8375C28.3471 15.6759 28.3001 15.5178 28.2119 15.3824C28.1236 15.247 27.9979 15.1402 27.85 15.075L20.6917 11.8167Z" stroke="#FAFAFA" stroke-width="2" stroke-linecap="round" stroke-linejoin="round"/>
<path d="M28.3333 24.7084L20.6916 28.175C20.4745 28.2741 20.2386 28.3253 20 28.3253C19.7613 28.3253 19.5254 28.2741 19.3083 28.175L11.6666 24.7084" stroke="#FAFAFA" stroke-width="2" stroke-linecap="round" stroke-linejoin="round"/>
<path d="M28.3333 20.5416L20.6916 24.0083C20.4745 24.1073 20.2386 24.1586 20 24.1586C19.7613 24.1586 19.5254 24.1073 19.3083 24.0083L11.6666 20.5416" stroke="#FAFAFA" stroke-width="2" stroke-linecap="round" stroke-linejoin="round"/>
</svg>
