<svg width="40" height="40" viewBox="0 0 40 40" fill="none" xmlns="http://www.w3.org/2000/svg">
<path d="M0 8C0 3.58172 3.58172 0 8 0H32C36.4183 0 40 3.58172 40 8V32C40 36.4183 36.4183 40 32 40H8C3.58172 40 0 36.4183 0 32V8Z" fill="#171717"/>
<path d="M26.6666 13.3333H13.3333C12.4128 13.3333 11.6666 14.0795 11.6666 15V25C11.6666 25.9205 12.4128 26.6667 13.3333 26.6667H26.6666C27.5871 26.6667 28.3333 25.9205 28.3333 25V15C28.3333 14.0795 27.5871 13.3333 26.6666 13.3333Z" stroke="#FAFAFA" stroke-width="2" stroke-linecap="round" stroke-linejoin="round"/>
<path d="M28.3333 15.8333L20.8583 20.5833C20.601 20.7445 20.3036 20.83 20 20.83C19.6964 20.83 19.3989 20.7445 19.1416 20.5833L11.6666 15.8333" stroke="#FAFAFA" stroke-width="2" stroke-linecap="round" stroke-linejoin="round"/>
</svg>
