<svg width="18" height="19" viewBox="0 0 18 19" fill="none" xmlns="http://www.w3.org/2000/svg">
<path d="M1.86853 11.196C1.70805 11.1966 1.55072 11.1516 1.4148 11.0663C1.27888 10.9809 1.16996 10.8588 1.10069 10.7141C1.03142 10.5693 1.00465 10.4079 1.02348 10.2485C1.04231 10.0891 1.10598 9.93838 1.20708 9.81376L9.60244 1.16399C9.66541 1.0913 9.75123 1.04218 9.8458 1.02469C9.94038 1.0072 10.0381 1.02238 10.1229 1.06774C10.2077 1.11311 10.2746 1.18595 10.3125 1.27432C10.3505 1.3627 10.3572 1.46135 10.3317 1.55408L8.70354 6.65914C8.65553 6.78763 8.63941 6.92586 8.65655 7.06195C8.6737 7.19805 8.72361 7.32795 8.80199 7.44052C8.88037 7.55309 8.98489 7.64497 9.10658 7.70827C9.22827 7.77157 9.36351 7.80441 9.50068 7.80396H15.4368C15.5973 7.80341 15.7546 7.84841 15.8905 7.93373C16.0264 8.01904 16.1354 8.14117 16.2046 8.28592C16.2739 8.43068 16.3007 8.59212 16.2818 8.75148C16.263 8.91085 16.1993 9.0616 16.0982 9.18623L7.70288 17.836C7.63991 17.9087 7.55409 17.9578 7.45952 17.9753C7.36494 17.9928 7.26723 17.9776 7.18243 17.9322C7.09762 17.8869 7.03076 17.814 6.99281 17.7257C6.95486 17.6373 6.94808 17.5386 6.97359 17.4459L8.60178 12.3408C8.64979 12.2124 8.66591 12.0741 8.64877 11.938C8.63162 11.8019 8.58172 11.672 8.50333 11.5595C8.42495 11.4469 8.32043 11.355 8.19874 11.2917C8.07705 11.2284 7.94181 11.1956 7.80464 11.196H1.86853Z" stroke="#FAFAFA" stroke-width="2" stroke-linecap="round" stroke-linejoin="round"/>
</svg>
